<?xml version="1.0" encoding="iso-8859-1"?>
<!-- Generator: Adobe Illustrator 18.1.1, SVG Export Plug-In . SVG Version: 6.00 Build 0)  -->
<svg version="1.1" id="Capa_1" xmlns="http://www.w3.org/2000/svg" xmlns:xlink="http://www.w3.org/1999/xlink" x="0px" y="0px"
	 viewBox="0 0 25.991 25.991" style="enable-background:new 0 0 25.991 25.991;" xml:space="preserve">
<g>
	<path style="fill:#030104;" d="M21.803,3.177l-1.699,1.076c1.965,0.927,3.148,2.151,3.148,3.309c0,3.566-5.792,4.827-10.752,4.827
		c-6.154,0-10.752-2.549-10.752-4.827c0-2.284,4.598-4.834,10.752-4.834c1.78,0,3.423,0.218,4.869,0.576l1.392-1.433
		C16.918,1.308,14.784,0.98,12.5,0.98C5.595,0.98,0,3.928,0,7.562c0,3.628,5.595,6.576,12.5,6.576S25,12.085,25,7.562
		C25,5.876,23.785,4.342,21.803,3.177z"/>
	<path style="fill:#030104;" d="M25.808,0.528c-0.339-0.531-1.046-0.66-1.547-0.301l-7.836,5.755c0,0-0.431,0.174-0.782-0.003
		c-0.292-0.146-0.631-0.204-0.976-0.173c-1.058,0.093-1.838,1.025-1.743,2.083c0.094,1.057,1.023,1.836,2.081,1.742
		c1.056-0.092,1.973-1.046,1.744-2.081c-0.081-0.361,0.238-0.608,0.238-0.608l8.472-4.872C25.99,1.756,26.155,1.063,25.808,0.528z"
		/>
	<g>
		<g>
			<path style="fill:#030104;" d="M20,14.843c-1.713,0.584-3.763,0.922-6,1.023v10.076c2.237-0.102,4.287-0.44,6-1.024V14.843z"/>
		</g>
		<g>
			<path style="fill:#030104;" d="M6,25.012c1.762,0.566,3.806,0.908,6,0.954V15.89c-2.194-0.045-4.238-0.387-6-0.952V25.012z"/>
		</g>
		<g>
			<path style="fill:#030104;" d="M4,14.141c-2.455-1.201-4-2.91-4-4.813c0,2.468,0,7.336,0,10.07c0,1.903,1.545,3.614,4,4.816
				V14.141z"/>
		</g>
		<g>
			<path style="fill:#030104;" d="M22,13.959v10.075c1.867-1.074,3-2.604,3-4.637c0-1.484,0-7.314,0-10.07
				C25,11.358,23.867,12.886,22,13.959z"/>
		</g>
	</g>
</g>
<g>
</g>
<g>
</g>
<g>
</g>
<g>
</g>
<g>
</g>
<g>
</g>
<g>
</g>
<g>
</g>
<g>
</g>
<g>
</g>
<g>
</g>
<g>
</g>
<g>
</g>
<g>
</g>
<g>
</g>
</svg>
