<svg id="Capa_1" enable-background="new 0 0 512 512" height="512" viewBox="0 0 512 512" width="512" xmlns="http://www.w3.org/2000/svg"><g><path d="m466.394 188.108v-60.938c2.939-4.369 4.656-9.625 4.656-15.275 0-15.13-12.309-27.438-27.438-27.438-4.494 0-8.734 1.093-12.482 3.016l-32.694-35.136 53.479-8.04c8.355-1.257 14.131-9.077 12.875-17.434-2.587-17.204-18.69-29.087-35.894-26.511l-111.249 16.726c-17.204 2.587-29.097 18.688-26.511 35.894 1.267 8.414 9.099 14.129 17.433 12.875l71.892-10.808 39.685 42.648c-2.521 4.147-3.973 9.011-3.973 14.208 0 5.65 1.718 10.905 4.656 15.274v22.588c-32.247 2.742-81.138 21.579-113.191 44.583-16.096-5.965-33.492-9.229-51.637-9.229s-35.542 3.265-51.638 9.229c-12.997-9.328-29.679-18.541-47.494-26.186-19.778-8.488-44.349-16.504-65.696-18.385v-22.601c2.938-4.369 4.655-9.624 4.655-15.273 0-5.197-1.453-10.062-3.973-14.208l39.685-42.648 71.892 10.808c8.373 1.254 16.177-4.532 17.433-12.875 2.586-17.206-9.307-33.307-26.511-35.894l-111.25-16.726c-17.209-2.579-33.307 9.307-35.894 26.51-1.259 8.379 4.502 16.173 12.876 17.434l53.478 8.04-32.694 35.136c-3.747-1.923-7.988-3.016-12.481-3.016-15.13 0-27.439 12.309-27.439 27.438 0 5.65 1.718 10.905 4.656 15.274v60.939c-43.739 113.851-30.854 79.691-43.954 115.887-.011.03-.017.061-.028.091-5.896 15.766 15.365 35.05 43.982 50.854v111.49h-5.69c-11.895 0-21.572 9.678-21.572 21.572v2.423c0 11.895 9.678 21.571 21.572 21.571h56.947c11.895 0 21.571-9.677 21.571-21.571v-2.424c0-11.895-9.677-21.572-21.571-21.572h-5.69v-91.411c8.057 2.77 16.051 5.134 23.695 6.99 8.506 25.008 23.49 47.046 42.935 64.117l-19.648 31.638c-6.274 10.104-3.159 23.43 6.947 29.708l2.056 1.275c10.102 6.276 23.402 3.206 29.706-6.943l19.362-31.178c18.309 8.049 38.527 12.529 59.776 12.529 21.248 0 41.467-4.48 59.775-12.529l19.362 31.177c6.289 10.125 19.572 13.237 29.703 6.945l2.062-1.279c10.104-6.276 13.219-19.602 6.944-29.706l-19.648-31.638c19.446-17.072 34.429-39.109 42.936-64.118 7.644-1.856 15.638-4.22 23.695-6.991v91.413h-5.69c-11.895 0-21.572 9.678-21.572 21.572v2.423c0 11.895 9.678 21.571 21.572 21.571h56.946c11.895 0 21.572-9.677 21.572-21.571v-2.422c0-11.895-9.678-21.572-21.572-21.572h-5.69v-36.732c0-4.143-3.357-7.5-7.5-7.5s-7.5 3.357-7.5 7.5v36.732h-15.565v-97.01c5.121-2.086 10.024-4.194 15.565-6.814v32.092c0 4.143 3.357 7.5 7.5 7.5s7.5-3.357 7.5-7.5v-39.757c28.617-15.804 49.877-35.087 43.982-50.853-8.452-24.17-11.666-31.853-43.985-115.978zm-160.056-137.095c-.188.026-.342-.099-.368-.271-1.357-9.025 4.882-17.473 13.907-18.829l111.249-16.727c9.029-1.363 17.473 4.883 18.829 13.907.027.177-.095.343-.271.369zm-244.021-21.551c-.184-.027-.302-.198-.272-.369 1.231-8.195 8.309-14.093 16.358-14.093 1.822 0-5.125-.956 113.72 16.912 9.025 1.356 15.265 9.804 13.907 18.829-.026.176-.194.304-.368.271zm381.295 69.994c6.858 0 12.438 5.58 12.438 12.438 0 6.832-5.588 12.439-12.438 12.439-6.847 0-12.439-5.607-12.439-12.439-.001-6.858 5.579-12.438 12.439-12.438zm7.782 38.754v17.137c-3.603-3.003-8.804-4.875-15.565-5.602v-11.535c4.892 1.451 10.368 1.541 15.565 0zm-23.001 26.193c3.169-.031 12.722.339 13.864 3.248l2.817 7.173c-31.66-3.031-81.599 17.086-109.674 33.246-3.463-2.187-7.743-4.644-11.567-6.607 27.5-17.685 73.306-36.577 104.56-37.06zm-344.477-.012c20.632.295 47.782 9.282 67.037 17.545 13.576 5.827 26.405 12.575 37.215 19.527-3.74 1.92-7.996 4.352-11.567 6.607-28.233-16.252-78.475-36.151-109.674-33.246l2.978-7.582c1.48-2.623 11.577-2.77 14.011-2.851zm-23.31-9.044v-17.137c5.195 1.533 10.629 1.46 15.566 0v11.521c-5.47.583-11.305 2.065-15.566 5.616zm7.783-55.891c6.858 0 12.438 5.58 12.438 12.438 0 6.874-5.641 12.439-12.438 12.439-6.884 0-12.439-5.64-12.439-12.439 0-6.858 5.58-12.438 12.439-12.438zm28.474 381.972c3.623 0 6.571 2.948 6.571 6.572v2.423c0 3.623-2.948 6.571-6.571 6.571h-56.947c-3.624 0-6.572-2.948-6.572-6.571v-2.423c0-3.624 2.948-6.572 6.572-6.572zm-36.257-15v-103.824c5.246 2.479 11.209 5.064 15.566 6.815v97.009zm-30.138-139.19c-13.727-10.796-15.172-16.971-14.794-17.921 1.947-4.896 37.425-7.246 91.526 16.715-.691 12.847.22 25.861 3.063 39.267-25.892-7.301-58.655-21.435-79.795-38.061zm78.407-16.834c-23.529-9.987-61.406-21.972-86.751-18.898l2.768-7.647c1.698-3.709 18.703-3.239 23.047-2.845 20.563 1.865 44.427 9.421 63.379 17.389-.974 3.941-1.791 7.943-2.443 12.001zm-77.134-44.38c.021-.054 28.271-73.597 28.301-73.645.92-1.472 5.711-2.314 7.474-2.522 26.539-3.112 71.732 15.024 95.553 27.858-21.614 17.306-38.077 40.271-47.393 66.249-23.081-9.546-59.244-20.751-83.935-17.94zm132.38 227.864c-1.905 3.068-5.945 4.044-9.053 2.113l-2.056-1.275c-3.078-1.912-4.027-5.972-2.116-9.05l18.736-30.169c4.218 3.01 8.601 5.8 13.128 8.365zm196.983-8.212c1.911 3.078.962 7.138-2.113 9.048l-2.062 1.279c-3.083 1.915-7.133.973-9.05-2.115l-18.639-30.015c4.527-2.565 8.91-5.355 13.127-8.365zm-105.104-17.523c-78.028 0-140.553-67.053-133.47-146.124v-.001c6.173-68.647 64.07-121.918 133.47-121.918 74.044 0 134.021 60.294 134.021 134.021.001 73.925-60.17 134.022-134.021 134.022zm140.324-184.19c-9.396-26.199-26.014-49.163-47.393-66.249 54.237-29.219 99.809-31.621 103.053-25.29l28.276 73.6c-24.521-2.793-60.723 8.332-83.936 17.939zm90.784-.104 2.767 7.646c-25.231-3.047-62.979 8.82-86.75 18.898-.652-4.057-1.469-8.06-2.443-12.001 49.962-20.994 83.983-19.779 86.426-14.543zm-15.024 197.569c3.624 0 6.572 2.948 6.572 6.572v2.423c0 3.623-2.948 6.571-6.572 6.571h-56.946c-3.624 0-6.572-2.948-6.572-6.571v-2.423c0-3.624 2.948-6.572 6.572-6.572zm-70.346-116.129c2.687-12.573 3.784-25.841 3.062-39.267 52.781-23.361 89.387-22.107 91.526-16.715 2.607 6.556-32.979 38.61-94.588 55.982z"/><path d="m256 215.309c-65.52 0-118.823 53.304-118.823 118.822 0 58.233 42.572 108.222 100.148 117.351 4.091.646 7.935-2.143 8.582-6.232.649-4.091-2.142-7.934-6.232-8.582-49.882-7.91-87.498-51.991-87.498-102.536 0-57.248 46.575-103.822 103.823-103.822s103.822 46.574 103.822 103.822c0 50.545-37.615 94.626-87.497 102.536-4.091.648-6.882 4.491-6.232 8.582.585 3.693 3.773 6.326 7.398 6.326.39 0 .785-.03 1.184-.094 57.478-9.113 100.147-59.014 100.147-117.351.001-65.519-53.303-118.822-118.822-118.822z"/></g></svg>